<?xml version="1.0" standalone="no"?><!DOCTYPE svg PUBLIC "-//W3C//DTD SVG 1.1//EN" "http://www.w3.org/Graphics/SVG/1.1/DTD/svg11.dtd"><svg t="1646720156501" class="icon" viewBox="0 0 1024 1024" version="1.1" xmlns="http://www.w3.org/2000/svg" p-id="1271" xmlns:xlink="http://www.w3.org/1999/xlink" width="200" height="200"><defs><style type="text/css"></style></defs><path d="M354.986667 778.24c3.413333 3.413333 6.826667 3.413333 10.24 3.413333 6.826667 0 10.24-3.413333 13.653333-6.826666l68.266667-95.573334c3.413333-3.413333 3.413333-6.826667 3.413333-13.653333 0-3.413333-3.413333-10.24-6.826667-10.24l-286.72-191.146667c-3.413333-3.413333-10.24-3.413333-13.653333-3.413333-6.826667 3.413333-10.24 6.826667-10.24 10.24l-34.133333 116.053333c-3.413333 6.826667 0 13.653333 6.826666 20.48l249.173334 170.666667zM1013.76 907.946667L785.066667 750.933333s-3.413333 0-3.413334-3.413333c-3.413333 0-3.413333 0-3.413333-3.413333l-3.413333-3.413334-3.413334-3.413333-464.213333-307.2c-3.413333-3.413333-6.826667-3.413333-10.24-3.413333H215.04c-6.826667 0-13.653333 3.413333-17.066667 13.653333s0 13.653333 6.826667 20.48l716.8 477.866667c3.413333 3.413333 6.826667 3.413333 10.24 3.413333h71.68c6.826667 0 13.653333-3.413333 17.066667-13.653333 3.413333-10.24 0-17.066667-6.826667-20.48zM341.333333 815.786667c0-3.413333-3.413333-10.24-6.826666-10.24L102.4 651.946667c-6.826667-3.413333-10.24-6.826667-17.066667-3.413334s-10.24 6.826667-10.24 10.24L0 914.773333c0 6.826667 0 10.24 3.413333 13.653334s6.826667 6.826667 13.653334 6.826666h232.106666c6.826667 0 10.24-3.413333 13.653334-6.826666l75.093333-102.4c3.413333 0 3.413333-3.413333 3.413333-10.24zM822.613333 713.386667c-3.413333 3.413333-3.413333 10.24-3.413333 13.653333 0 3.413333 3.413333 10.24 6.826667 10.24l143.36 95.573333c3.413333 3.413333 6.826667 3.413333 10.24 3.413334 3.413333 0 6.826667 0 10.24-3.413334 6.826667-3.413333 6.826667-10.24 6.826666-17.066666l-58.026666-204.8c-3.413333-6.826667-6.826667-10.24-13.653334-13.653334-6.826667 0-13.653333 0-17.066666 6.826667l-85.333334 109.226667zM498.346667 692.906667c-6.826667-3.413333-17.066667-3.413333-23.893334 3.413333l-157.013333 215.04c-3.413333 6.826667-3.413333 13.653333 0 17.066667 3.413333 6.826667 10.24 10.24 13.653333 10.24h477.866667c6.826667 0 13.653333-3.413333 17.066667-13.653334s0-13.653333-6.826667-20.48l-320.853333-211.626666z m44.373333 170.666666l-75.093333-47.786666 30.72-40.96 75.093333 47.786666-30.72 40.96zM771.413333 699.733333c3.413333 3.413333 6.826667 3.413333 10.24 3.413334 3.413333 0 10.24-3.413333 13.653334-6.826667l119.466666-150.186667c3.413333-3.413333 3.413333-10.24 3.413334-13.653333l-30.72-92.16c-3.413333-6.826667-10.24-13.653333-17.066667-13.653333H750.933333V546.133333c0 10.24-6.826667 17.066667-17.066666 17.066667s-17.066667-6.826667-17.066667-17.066667V320.853333c58.026667-6.826667 102.4-58.026667 102.4-116.053333 0-64.853333-54.613333-119.466667-119.466667-119.466667S580.266667 139.946667 580.266667 204.8c0 61.44 44.373333 109.226667 102.4 116.053333v105.813334h-262.826667c-6.826667 0-13.653333 3.413333-17.066667 13.653333-3.413333 6.826667 0 13.653333 6.826667 20.48l361.813333 238.933333z" fill="" p-id="1272"></path></svg>