<?xml version="1.0" standalone="no"?><!DOCTYPE svg PUBLIC "-//W3C//DTD SVG 1.1//EN" "http://www.w3.org/Graphics/SVG/1.1/DTD/svg11.dtd"><svg t="1646789391525" class="icon" viewBox="0 0 1024 1024" version="1.1" xmlns="http://www.w3.org/2000/svg" p-id="43516" xmlns:xlink="http://www.w3.org/1999/xlink" width="200" height="200"><defs><style type="text/css"></style></defs><path d="M723.571613 461.790968c-32.371613 13.873548-67.220645-2.312258-81.094194-32.371613-13.873548-32.371613 2.312258-67.220645 32.371613-81.094194 32.371613-13.873548 67.220645 2.312258 81.094194 32.371613 14.03871 32.371613 0.165161 69.367742-32.371613 81.094194z m97.445161-139.065807l-20.810322 9.249033c-6.936774-9.249032-16.185806-18.498065-23.122581-23.122581l9.249032-20.810323c2.312258-6.936774 0-13.873548-6.936774-16.185806l-34.683871-13.873549c-6.936774-2.312258-13.873548 0-16.185806 6.936775l-9.249033 20.810322c-11.56129-2.312258-23.122581-2.312258-34.683871 0l-9.249032-20.810322c-2.312258-6.936774-9.249032-9.249032-16.185806-6.936775l-34.849033 13.873549c-6.936774 2.312258-9.249032 9.249032-6.936774 16.185806l9.249032 20.810323c-9.249032 6.936774-18.498065 16.185806-23.12258 23.122581l-20.810323-9.249033c-6.936774-2.312258-13.873548 0-16.185806 6.936774l-13.873549 34.849033c-2.312258 6.936774 0 13.873548 6.936775 16.185806l20.810322 9.249032c-2.312258 11.56129-2.312258 23.122581 0 34.849033l-20.810322 9.249032c-6.936774 2.312258-9.249032 9.249032-6.936775 16.185806l13.873549 34.849033c2.312258 6.936774 9.249032 9.249032 16.185806 6.936774l20.810323-9.249032c6.936774 9.249032 16.185806 18.498065 23.12258 23.12258l-6.936774 18.498065c-2.312258 6.936774 0 13.873548 6.936774 16.185806l34.683871 13.873549c6.936774 2.312258 13.873548 0 16.185807-6.936775l9.249032-20.810322c11.56129 2.312258 23.122581 2.312258 34.683871 0l9.249032 20.810322c2.312258 6.936774 9.249032 9.249032 16.185807 6.936775l34.849032-13.873549c6.936774-2.312258 9.249032-9.249032 6.936774-16.185806l-9.249032-20.810323c9.249032-6.936774 18.498065-16.185806 23.122581-23.12258l20.810322 9.249032c6.936774 2.312258 13.873548 0 16.185807-6.936774l13.873548-34.849033c2.312258-6.936774 0-13.873548-6.936774-16.185806l-20.810323-9.249032c2.312258-11.56129 2.312258-23.122581 0-34.683871l20.810323-9.249033c6.936774-2.312258 9.249032-9.249032 6.936774-16.185806l-13.873548-34.683871c-6.936774-2.642581-13.873548-7.267097-18.498065-4.954839z m0 0" p-id="43517"></path><path d="M443.127742 973.956129c-23.122581 0-41.785806-18.498065-41.785807-41.785806s18.498065-41.785806 41.785807-41.785807c23.122581 0 41.785806 18.498065 41.785806 41.785807-2.312258 25.6-20.810323 41.785806-41.785806 41.785806zM403.819355 90.83871h81.094193c4.624516 0 9.249032 4.624516 9.249033 9.249032s-4.624516 9.249032-9.249033 9.249032h-81.094193c-4.624516 0-9.249032-4.624516-9.249032-9.249032s4.624516-9.249032 9.249032-9.249032z m266.570322 498.291613v271.194838H220.655484V174.245161h449.734193v48.722581h51.034839V81.589677c0-46.410323-37.16129-81.094194-81.094193-81.094193H250.88c-46.410323 0-81.094194 37.16129-81.094194 81.094193V941.419355c0 46.410323 37.16129 81.094194 81.094194 81.094193h389.450323c46.410323 0 81.094194-37.16129 81.094193-81.094193V589.130323h-51.034839z m0 0" p-id="43518"></path><path d="M274.002581 338.910968h245.76v51.034838H274.002581v-51.034838z m60.283871 101.904516h185.476129v51.034839H334.286452v-51.034839z m122.88 102.069677h62.596129v51.034839h-62.596129v-51.034839z m0 0" p-id="43519"></path></svg>