<?xml version="1.0" standalone="no"?><!DOCTYPE svg PUBLIC "-//W3C//DTD SVG 1.1//EN" "http://www.w3.org/Graphics/SVG/1.1/DTD/svg11.dtd"><svg t="1646723256952" class="icon" viewBox="0 0 1024 1024" version="1.1" xmlns="http://www.w3.org/2000/svg" p-id="8344" xmlns:xlink="http://www.w3.org/1999/xlink" width="200" height="200"><defs><style type="text/css"></style></defs><path d="M840 813.622c0-0.207 0.787-0.995 1.75-1.75 1.586-1.243 1.621-1.208 0.378 0.378-1.307 1.666-2.128 2.195-2.128 1.372zM335.872 799.25c-1.243-1.586-1.208-1.621 0.378-0.378 0.963 0.755 1.75 1.543 1.75 1.75 0 0.823-0.821 0.294-2.128-1.372zM89.25 649.251c11.412-0.16 30.087-0.16 41.5 0 11.412 0.16 2.075 0.292-20.75 0.292s-32.163-0.131-20.75-0.292zM18.872 632.25c-1.243-1.586-1.208-1.621 0.378-0.378 1.666 1.307 2.195 2.128 1.372 2.128-0.207 0-0.995-0.787-1.75-1.75z m999.207-87.833c0.048-1.165 0.285-1.402 0.604-0.605 0.289 0.722 0.253 1.585-0.079 1.917-0.332 0.332-0.569-0.258-0.525-1.312zM956.336 523c0-4.125 0.177-5.813 0.392-3.75 0.216 2.063 0.216 5.438 0 7.5-0.215 2.063-0.392 0.375-0.392-3.75z m-163.178 0c0-1.375 0.227-1.938 0.504-1.25 0.278 0.688 0.278 1.813 0 2.5-0.277 0.688-0.504 0.125-0.504-1.25z m224.92-20.583c0.049-1.165 0.286-1.402 0.605-0.604 0.289 0.721 0.254 1.584-0.079 1.916-0.332 0.332-0.569-0.258-0.525-1.312zM783.406 313.75l-1.905-2.25 2.25 1.905c1.238 1.048 2.25 2.06 2.25 2.25 0 0.8-0.805 0.21-2.595-1.905z m63-75l-1.905-2.25 2.25 1.905c1.238 1.048 2.25 2.06 2.25 2.25 0 0.8-0.805 0.21-2.595-1.905z" fill="#B9B9B9" p-id="8345"></path><path d="M886 855.622c0-0.207 0.787-0.995 1.75-1.75 1.586-1.243 1.621-1.208 0.378 0.378-1.307 1.666-2.128 2.195-2.128 1.372zM896.5 845c0.995-1.1 2.035-2 2.31-2 0.275 0-0.315 0.9-1.31 2-0.995 1.1-2.035 2-2.31 2-0.275 0 0.315-0.9 1.31-2zM851 802.622c0-0.207 0.787-0.995 1.75-1.75 1.586-1.243 1.621-1.208 0.378 0.378-1.307 1.666-2.128 2.195-2.128 1.372zM739.405 731.75l-1.905-2.25 2.25 1.905c2.114 1.79 2.705 2.595 1.905 2.595-0.19 0-1.202-1.012-2.25-2.25zM5.079 586.417c0.048-1.165 0.285-1.402 0.604-0.605 0.289 0.722 0.253 1.585-0.079 1.917-0.332 0.332-0.568-0.258-0.525-1.312zM1018.195 540.5c0.02-1.65 0.244-2.204 0.498-1.231 0.254 0.973 0.237 2.323-0.037 3-0.274 0.677-0.481-0.119-0.461-1.769z m-61.909-6c0.008-2.75 0.202-3.756 0.432-2.236 0.23 1.52 0.223 3.77-0.014 5-0.237 1.23-0.425-0.014-0.418-2.764zM793.272 529c0-2.475 0.195-3.487 0.434-2.25 0.238 1.238 0.238 3.263 0 4.5-0.239 1.238-0.434 0.225-0.434-2.25z m0-12c0-2.475 0.195-3.487 0.434-2.25 0.238 1.238 0.238 3.263 0 4.5-0.239 1.238-0.434 0.225-0.434-2.25z m163-5c0-2.475 0.195-3.487 0.434-2.25 0.238 1.238 0.238 3.263 0 4.5-0.239 1.238-0.434 0.225-0.434-2.25z m61.886-6c0-1.375 0.227-1.938 0.504-1.25 0.278 0.688 0.278 1.813 0 2.5-0.277 0.688-0.504 0.125-0.504-1.25zM5.195 408.5c0.02-1.65 0.244-2.204 0.498-1.231 0.254 0.973 0.237 2.323-0.037 3-0.274 0.677-0.481-0.119-0.461-1.769z m844.677-166.25c-1.243-1.586-1.208-1.621 0.378-0.378 1.666 1.307 2.195 2.128 1.372 2.128-0.207 0-0.995-0.787-1.75-1.75z m42.581-45.5l-3.953-4.25 4.25 3.953c3.952 3.676 4.71 4.547 3.953 4.547-0.163 0-2.076-1.913-4.25-4.25z" fill="#A3A3A3" p-id="8346"></path><path d="M889 852.687c0-0.172 1.462-1.635 3.25-3.25l3.25-2.937-2.937 3.25c-2.738 3.03-3.563 3.71-3.563 2.937zM213.872 810.25c-1.243-1.586-1.208-1.621 0.378-0.378 0.962 0.755 1.75 1.543 1.75 1.75 0 0.823-0.821 0.294-2.128-1.372z m-7.467-7.5l-1.905-2.25 2.25 1.905c2.114 1.79 2.705 2.595 1.905 2.595-0.19 0-1.202-1.012-2.25-2.25z m47.467-41.5c-1.243-1.586-1.208-1.621 0.378-0.378 0.962 0.755 1.75 1.543 1.75 1.75 0 0.823-0.821 0.294-2.128-1.372zM783.5 732c0.995-1.1 2.035-2 2.31-2 0.275 0-0.315 0.9-1.31 2-0.995 1.1-2.035 2-2.31 2-0.275 0 0.315-0.9 1.31-2z m-631.421-75.583c0.048-1.165 0.285-1.402 0.604-0.605 0.289 0.722 0.253 1.585-0.079 1.917-0.332 0.332-0.568-0.258-0.525-1.312zM5.195 582.5c0.02-1.65 0.244-2.204 0.498-1.231 0.254 0.973 0.237 2.323-0.037 3-0.274 0.677-0.481-0.119-0.461-1.769zM1018.272 534c0-2.475 0.195-3.487 0.434-2.25 0.238 1.238 0.238 3.263 0 4.5-0.239 1.238-0.434 0.225-0.434-2.25z m-225.114 1c0-1.375 0.227-1.938 0.504-1.25 0.278 0.688 0.278 1.813 0 2.5-0.277 0.688-0.504 0.125-0.504-1.25z m225.128-22.5c0.01-2.75 0.202-3.756 0.432-2.236 0.23 1.52 0.223 3.77-0.014 5-0.238 1.23-0.426-0.014-0.418-2.764z m-225.207-1.083c0.048-1.165 0.285-1.402 0.604-0.604 0.289 0.721 0.253 1.584-0.079 1.916-0.332 0.332-0.568-0.258-0.525-1.312z m163-5c0.048-1.165 0.285-1.402 0.604-0.604 0.289 0.721 0.253 1.584-0.079 1.916-0.332 0.332-0.568-0.258-0.525-1.312z m61-18c0.048-1.165 0.285-1.402 0.604-0.604 0.289 0.721 0.253 1.584-0.079 1.916-0.332 0.332-0.569-0.258-0.525-1.312zM5.158 413c0-1.375 0.227-1.938 0.504-1.25 0.278 0.688 0.278 1.813 0 2.5-0.277 0.688-0.504 0.125-0.504-1.25z m62.092-74.69c0.963-0.25 2.538-0.25 3.5 0 0.963 0.252 0.175 0.458-1.75 0.458s-2.712-0.206-1.75-0.457z m773.622-105.06c-1.243-1.586-1.208-1.621 0.378-0.378 1.666 1.307 2.195 2.128 1.372 2.128-0.207 0-0.995-0.787-1.75-1.75z m21.94-52.933c0.722-0.289 1.585-0.253 1.917 0.079 0.332 0.332-0.258 0.568-1.312 0.525-1.165-0.048-1.402-0.285-0.605-0.604zM630.405 168.75l-1.905-2.25 2.25 1.905c2.114 1.79 2.705 2.595 1.905 2.595-0.19 0-1.202-1.012-2.25-2.25z m-34.592-10.433c0.721-0.289 1.584-0.253 1.916 0.079 0.332 0.332-0.258 0.568-1.312 0.525-1.165-0.048-1.402-0.285-0.605-0.604z m8 0c0.721-0.289 1.584-0.253 1.916 0.079 0.332 0.332-0.258 0.568-1.312 0.525-1.165-0.048-1.402-0.285-0.605-0.604z" fill="#8C8C8C" p-id="8347"></path><path d="M856.5 865.106c-9.897-2.662-17.04-8.38-21.166-16.945-2.222-4.613-2.728-7.05-2.731-13.161-0.006-10.748 2.124-14.74 15.089-28.277 44.782-46.76 80.2-112.693 96.812-180.223 8.617-35.03 11.866-63.37 11.866-103.5 0-45.164-3.989-75.122-15.58-117-16.981-61.36-51.026-122.268-93.237-166.81-12.651-13.35-14.932-17.573-14.952-27.69-0.017-8.388 3.107-16.142 8.795-21.83 5.805-5.804 10.943-7.952 20.252-8.463 7.152-0.392 8.822-0.139 13.66 2.076 13.205 6.046 41.69 38.613 64.914 74.217 55.495 85.078 82.115 183.18 77.742 286.5-2.006 47.39-9.134 87.748-23.125 130.924-16.972 52.375-45.85 106.317-79.544 148.576-13.044 16.36-32.492 35.96-38.684 38.986-5.534 2.704-15.142 3.956-20.111 2.62z m-556.804-13.062C232.107 839.043 185.488 795.67 164.43 726.2c-5.962-19.67-9.288-39.186-11.995-70.385l-0.58-6.683-49.677-0.37c-46.996-0.352-50.091-0.487-57.332-2.502-26.212-7.295-36.446-22.392-38.828-57.277-1.255-18.39-1.276-163.443-0.026-183.747 2.32-37.692 12.63-54.974 37.48-62.826 11.682-3.69 25.294-4.349 90.654-4.382l57.626-0.029 192.374-87.867c105.806-48.327 194.624-88.427 197.374-89.111 26.566-6.61 49.288 0.887 56.083 18.506 1.875 4.862 1.917 11.846 1.917 316.972 0 296.808-0.087 312.249-1.784 317.11-3.242 9.287-10.814 16.243-21.716 19.949-7.406 2.517-23.798 2.516-33.5-0.002-4.592-1.192-68.69-31.042-186.332-86.772-98.633-46.725-179.59-84.697-179.904-84.383-0.314 0.314-0.039 4.515 0.612 9.335 6.693 49.59 24.041 83.003 52.975 102.03 13.072 8.595 26.252 13.451 45.649 16.819 5.31 0.921 10.991 2.646 13.855 4.204 22.394 12.187 21.134 45.314-2.13 55.964-7.162 3.28-15.222 3.657-27.529 1.29zM753.5 739.662c-6.722-2.228-10.094-4.394-14.332-9.208-4.935-5.607-7.533-12.918-7.47-21.022 0.06-7.683 2.494-13.291 9.613-22.146 20.832-25.913 39.078-66.802 46.575-104.371 10.08-50.514 6.865-106.451-8.732-151.915-9.12-26.582-23.12-53.72-35.858-69.5-7.938-9.835-9.209-11.998-10.879-18.517-4.546-17.747 8.261-35.753 26.791-37.665 6.798-0.702 14.875 1.51 20.564 5.632 14.822 10.737 42.172 56.462 54.756 91.544 14.936 41.64 21.414 83.218 20.176 129.506-0.99 37.003-6.546 70.447-16.813 101.198-15.713 47.062-44.612 95.535-62.315 104.521-6.062 3.077-16.01 3.952-22.076 1.943z" fill="#767676" p-id="8348"></path></svg>